PathFileType	4	(X/Y/Z)	/home/nbianco/projects/addbio/data/HamnerRunning2013/Processed/subject03//results/MarkerData/run200.trc
DataRate	CameraRate	NumFrames	NumMarkers	Units	OrigDataRate	OrigDataStartFrame	OrigNumFrames
100	100	9	45	m	100	136	219
Frame#	Time	C7			CLAV			LACR			LASI			LCAL			LFAradius			LFAsuperior			LFAulna			LLEL			LMEL			LMT5			LPSH			LPSI			LTB1			LTB2			LTB3			LTH1			LTH2			LTH3			LTOE			LUA1			LUA2			LUA3			RACR			RASI			RCAL			RFAradius			RFAsuperior			RFAulna			RLEL			RLMAL			RMEL			RMMAL			RMT5			RPSI			RTB1			RTB2			RTB3			RTH1			RTH2			RTH3			RTOE			RUA1			RUA2			RUA3		
		X1	Y1	Z1	X2	Y2	Z2	X3	Y3	Z3	X4	Y4	Z4	X5	Y5	Z5	X6	Y6	Z6	X7	Y7	Z7	X8	Y8	Z8	X9	Y9	Z9	X10	Y10	Z10	X11	Y11	Z11	X12	Y12	Z12	X13	Y13	Z13	X14	Y14	Z14	X15	Y15	Z15	X16	Y16	Z16	X17	Y17	Z17	X18	Y18	Z18	X19	Y19	Z19	X20	Y20	Z20	X21	Y21	Z21	X22	Y22	Z22	X23	Y23	Z23	X24	Y24	Z24	X25	Y25	Z25	X26	Y26	Z26	X27	Y27	Z27	X28	Y28	Z28	X29	Y29	Z29	X30	Y30	Z30	X31	Y31	Z31	X32	Y32	Z32	X33	Y33	Z33	X34	Y34	Z34	X35	Y35	Z35	X36	Y36	Z36	X37	Y37	Z37	X38	Y38	Z38	X39	Y39	Z39	X40	Y40	Z40	X41	Y41	Z41	X42	Y42	Z42	X43	Y43	Z43	X44	Y44	Z44	X45	Y45	Z45

137	1.56	0.966574	1.58	-0.532302	1.08007	1.48862	-0.49682	1.02087	1.56211	-0.682623	1.05873	1.05521	-0.609245	0.614993	0.147203	-0.585405	1.15203	1.36843	-0.653737	1.09473	1.21862	-0.727035	1.19404	1.31604	-0.639513	1.02729	1.2081	-0.798717	0.98026	1.19142	-0.716944	0.760687	0.0627647	-0.672714	0.946381	1.51534	-0.70665	0.885244	1.09324	-0.553813	0.89917	0.395572	-0.629011	0.778009	0.347582	-0.662998	0.786484	0.239192	-0.620141	0.943023	0.842029	-0.671939	1.00006	0.725993	-0.658297	0.931357	0.634047	-0.657548	0.817592	0.0694039	-0.604526	0.985777	1.41549	-0.756149	0.94829	1.31889	-0.741439	0.990674	1.27979	-0.788232	0.998862	1.55157	-0.374263	1.03615	1.075	-0.377902	0.976711	0.132752	-0.425892	0.971664	1.09199	-0.21514	0.82245	1.2145	-0.183919	0.937138	1.05749	-0.169569	0.80894	1.29633	-0.195565	1.03161	0.156498	-0.357922	0.789162	1.27212	-0.278655	1.06491	0.167199	-0.436606	1.1138	0.0845853	-0.309363	0.877261	1.09161	-0.465687	1.15958	0.429895	-0.389316	1.10352	0.388118	-0.346077	1.09829	0.258202	-0.379538	1.03086	0.818297	-0.335447	1.12874	0.784497	-0.363214	1.10141	0.665828	-0.360782	1.18997	0.0913331	-0.373335	0.917632	1.43677	-0.271075	0.832354	1.40014	-0.293073	0.821254	1.35707	-0.237141
138	1.57	0.966907	1.58477	-0.530008	1.08042	1.49383	-0.494084	1.02178	1.56753	-0.679712	1.06089	1.06	-0.607802	0.602872	0.157922	-0.58528	1.14713	1.37776	-0.64635	1.09586	1.22616	-0.720358	1.19044	1.32666	-0.631187	1.03115	1.21344	-0.794125	0.981529	1.19705	-0.71371	0.743006	0.0646642	-0.673192	0.947559	1.52078	-0.70461	0.887503	1.09803	-0.55304	0.887378	0.401851	-0.629773	0.76551	0.355207	-0.662622	0.773888	0.246026	-0.620955	0.941102	0.847755	-0.67133	0.995059	0.730517	-0.657758	0.924205	0.640305	-0.657642	0.797737	0.068999	-0.604601	0.988409	1.4211	-0.753588	0.950522	1.32475	-0.73996	0.994282	1.28535	-0.785144	0.998284	1.55625	-0.372078	1.03778	1.07991	-0.377074	1.00583	0.121262	-0.422498	0.968907	1.09907	-0.214349	0.8172	1.21992	-0.18676	0.93317	1.0638	-0.170238	0.803347	1.30163	-0.198681	1.05962	0.14857	-0.35489	0.786221	1.2773	-0.282385	1.0908	0.162969	-0.433757	1.14748	0.0832154	-0.307373	0.879354	1.09646	-0.464823	1.16513	0.431783	-0.384522	1.11307	0.385324	-0.340861	1.11757	0.255679	-0.376101	1.02938	0.82178	-0.333123	1.12624	0.786777	-0.359257	1.09689	0.668408	-0.357174	1.22249	0.0965001	-0.372559	0.91452	1.44209	-0.27071	0.829878	1.40548	-0.295495	0.816951	1.36251	-0.239851
139	1.58	0.967295	1.58902	-0.527385	1.08087	1.49844	-0.491214	1.02262	1.57261	-0.676756	1.06301	1.0646	-0.606571	0.5919	0.168984	-0.584966	1.14263	1.38539	-0.639215	1.0963	1.2327	-0.71436	1.18685	1.33525	-0.623304	1.03418	1.21853	-0.789887	0.982045	1.20241	-0.710996	0.725628	0.0670496	-0.673439	0.948624	1.52584	-0.7022	0.88979	1.10222	-0.552143	0.877031	0.407929	-0.630156	0.754394	0.362765	-0.661801	0.762423	0.252846	-0.621609	0.93977	0.853205	-0.670786	0.990966	0.73485	-0.657162	0.918249	0.646167	-0.657414	0.778408	0.0689611	-0.604608	0.99056	1.42639	-0.750948	0.952333	1.33041	-0.738651	0.997443	1.29072	-0.782278	0.997919	1.56032	-0.369565	1.0396	1.08427	-0.376418	1.03349	0.111693	-0.418442	0.966981	1.10529	-0.213884	0.812594	1.22428	-0.189764	0.930012	1.06926	-0.171238	0.798311	1.30591	-0.20184	1.08662	0.142346	-0.352164	0.783224	1.28155	-0.285881	1.11511	0.160125	-0.431364	1.1801	0.0837576	-0.306402	0.88168	1.10071	-0.463859	1.16958	0.43336	-0.380223	1.12209	0.382784	-0.33617	1.13551	0.25417	-0.373088	1.02737	0.824377	-0.331131	1.12311	0.787706	-0.354952	1.0916	0.669844	-0.353396	1.25254	0.103587	-0.373299	0.911771	1.44659	-0.270078	0.82786	1.40987	-0.297819	0.813053	1.36702	-0.242523
140	1.59	0.967678	1.5926	-0.524371	1.08138	1.50234	-0.488214	1.02331	1.57714	-0.67358	1.06494	1.06876	-0.605655	0.581924	0.180362	-0.584494	1.13883	1.39118	-0.632389	1.09618	1.23808	-0.709116	1.18338	1.34165	-0.615625	1.03638	1.22328	-0.786139	0.981821	1.20732	-0.708779	0.708587	0.0700549	-0.673332	0.949531	1.53036	-0.699418	0.892041	1.10571	-0.551224	0.868367	0.413465	-0.630194	0.74485	0.370055	-0.660627	0.752086	0.259443	-0.622004	0.939043	0.858042	-0.670171	0.987887	0.738685	-0.656263	0.913732	0.651261	-0.656704	0.759728	0.0694205	-0.60449	0.992245	1.43123	-0.748267	0.953759	1.33573	-0.737229	0.999964	1.29578	-0.779636	0.997716	1.56367	-0.366761	1.04161	1.08794	-0.375969	1.05871	0.104217	-0.414119	0.965891	1.11061	-0.21369	0.808713	1.22756	-0.192776	0.927735	1.0738	-0.172524	0.793911	1.3091	-0.20489	1.11141	0.137986	-0.349797	0.779796	1.28498	-0.288952	1.13734	0.158403	-0.429254	1.21033	0.0860071	-0.306821	0.884111	1.10421	-0.462863	1.17295	0.434694	-0.376437	1.1302	0.380796	-0.331984	1.15149	0.253671	-0.370554	1.02483	0.826236	-0.329232	1.11968	0.787493	-0.350374	1.0859	0.670196	-0.349442	1.2789	0.112282	-0.375576	0.909402	1.45017	-0.269189	0.826242	1.41334	-0.299834	0.809647	1.37047	-0.245112
141	1.6	0.968033	1.59544	-0.521003	1.08186	1.50549	-0.485112	1.02381	1.58093	-0.670009	1.06655	1.07217	-0.605085	0.572764	0.192002	-0.58394	1.13593	1.3951	-0.625922	1.09559	1.24219	-0.704631	1.18018	1.34572	-0.608309	1.03776	1.22761	-0.782975	0.980939	1.21161	-0.707066	0.691938	0.0738135	-0.672967	0.95023	1.53417	-0.696288	0.894158	1.10851	-0.550376	0.861583	0.418089	-0.629943	0.737002	0.376934	-0.659176	0.742822	0.265641	-0.622104	0.93884	0.861925	-0.669349	0.985924	0.741683	-0.654906	0.910881	0.655207	-0.655395	0.741818	0.0704265	-0.60431	0.993456	1.43553	-0.745505	0.954693	1.34058	-0.735571	1.00171	1.30042	-0.77721	0.99765	1.56618	-0.363738	1.04377	1.09077	-0.375684	1.08051	0.0989303	-0.410175	0.965617	1.11497	-0.213703	0.805651	1.2297	-0.195633	0.92642	1.07732	-0.174101	0.790232	1.31116	-0.207685	1.13273	0.135451	-0.347718	0.77607	1.28764	-0.291615	1.15678	0.15759	-0.427202	1.23661	0.0892942	-0.30878	0.886485	1.10693	-0.461865	1.17536	0.43583	-0.37299	1.13687	0.379486	-0.328126	1.16489	0.253983	-0.36841	1.02206	0.827405	-0.327092	1.11629	0.78638	-0.345662	1.08034	0.669676	-0.345334	1.30059	0.121667	-0.379114	0.907444	1.45271	-0.268074	0.825011	1.41587	-0.301359	0.806838	1.37276	-0.247468
142	1.61	0.968359	1.59746	-0.51738	1.08227	1.50782	-0.481956	1.02409	1.58387	-0.666024	1.06778	1.07458	-0.604792	0.564412	0.203855	-0.583408	1.13394	1.39712	-0.619819	1.0946	1.24499	-0.700887	1.17747	1.34743	-0.601952	1.03833	1.2314	-0.780434	0.979567	1.21518	-0.705894	0.675755	0.0783616	-0.672542	0.950704	1.53722	-0.692848	0.89604	1.11057	-0.549592	0.8568	0.421449	-0.629311	0.730971	0.383314	-0.657496	0.734633	0.271333	-0.621942	0.939074	0.864562	-0.668251	0.985222	0.743531	-0.653058	0.909852	0.65767	-0.653435	0.724853	0.0720467	-0.604212	0.994154	1.43923	-0.742593	0.955028	1.34477	-0.733725	1.00264	1.30452	-0.775015	0.997725	1.56773	-0.360542	1.04605	1.09265	-0.375456	1.09804	0.0956241	-0.407266	0.966139	1.11838	-0.213853	0.803484	1.23068	-0.198209	0.926131	1.0797	-0.175974	0.787347	1.31201	-0.210103	1.14964	0.134281	-0.346112	0.772617	1.2894	-0.293958	1.1725	0.157486	-0.425406	1.25772	0.0925527	-0.312024	0.888676	1.10883	-0.460846	1.17693	0.436728	-0.369589	1.14157	0.37868	-0.324555	1.17523	0.254715	-0.36651	1.01952	0.827884	-0.324407	1.11324	0.784532	-0.341064	1.07565	0.668669	-0.341043	1.31713	0.130412	-0.383211	0.905946	1.45413	-0.26674	0.824184	1.41742	-0.302284	0.804707	1.37385	-0.24935
143	1.62	0.968641	1.59856	-0.513583	1.08258	1.50923	-0.478813	1.02421	1.58596	-0.661825	1.06859	1.07584	-0.60462	0.557192	0.215956	-0.583007	1.13277	1.39723	-0.614048	1.09326	1.24645	-0.697894	1.17543	1.34681	-0.597044	1.03813	1.23452	-0.778511	0.977854	1.21802	-0.705271	0.660204	0.0836482	-0.672171	0.950977	1.53948	-0.689159	0.8976	1.11179	-0.548761	0.854071	0.423331	-0.628075	0.726928	0.389098	-0.655631	0.727663	0.276486	-0.621559	0.93977	0.865724	-0.666882	0.985924	0.744034	-0.650725	0.910691	0.658436	-0.650897	0.709105	0.0742949	-0.604275	0.994329	1.44226	-0.739542	0.954776	1.34821	-0.731819	1.00283	1.30798	-0.773116	0.997963	1.56823	-0.357203	1.04835	1.09349	-0.375145	1.1107	0.0937063	-0.405795	0.967475	1.12082	-0.214105	0.802259	1.23042	-0.200426	0.926895	1.08086	-0.178122	0.785302	1.3116	-0.212031	1.16172	0.133658	-0.345437	0.769996	1.29003	-0.29595	1.18362	0.157791	-0.424467	1.27293	0.094773	-0.315838	0.890589	1.10989	-0.459746	1.17784	0.43723	-0.366138	1.14402	0.377966	-0.321498	1.18234	0.255337	-0.36481	1.01751	0.827743	-0.321009	1.11067	0.782115	-0.33684	1.07252	0.667578	-0.336713	1.32852	0.137262	-0.3869	0.904959	1.45431	-0.265168	0.823767	1.41792	-0.302554	0.803284	1.37374	-0.250555
144	1.63	0.968847	1.59865	-0.509669	1.08282	1.50964	-0.47576	1.02424	1.58719	-0.657712	1.06903	1.07593	-0.604372	0.551682	0.228415	-0.582789	1.13227	1.39536	-0.608594	1.09159	1.24654	-0.695697	1.17411	1.3439	-0.593303	1.03719	1.23687	-0.77717	0.975843	1.2201	-0.705154	0.645593	0.0896262	-0.671797	0.951099	1.54092	-0.685332	0.898787	1.11207	-0.547736	0.853395	0.423748	-0.626113	0.725013	0.394162	-0.653625	0.722161	0.281113	-0.620951	0.941073	0.865269	-0.665253	0.988036	0.74319	-0.647897	0.9133	0.657482	-0.647965	0.694886	0.0768786	-0.604385	0.994062	1.44454	-0.736496	0.954055	1.35086	-0.72998	1.00234	1.31074	-0.771591	0.998375	1.56765	-0.353786	1.05052	1.0933	-0.374619	1.11812	0.0924922	-0.405745	0.96967	1.1222	-0.214491	0.802	1.22886	-0.202228	0.928727	1.08075	-0.180519	0.784122	1.30989	-0.213352	1.16883	0.132812	-0.345865	0.768418	1.28931	-0.297405	1.18953	0.158116	-0.424688	1.28182	0.0953449	-0.319318	0.892142	1.11007	-0.458477	1.17821	0.437076	-0.363014	1.14447	0.376901	-0.31932	1.18627	0.255302	-0.363498	1.01614	0.827124	-0.317093	1.10876	0.779492	-0.332986	1.07119	0.666569	-0.332926	1.33488	0.141353	-0.389493	0.904511	1.45317	-0.263335	0.823737	1.41729	-0.302148	0.802556	1.37241	-0.251016
145	1.64	0.968949	1.59771	-0.505736	1.08302	1.50895	-0.472865	1.02421	1.58755	-0.653893	1.06912	1.07499	-0.603849	0.54834	0.241213	-0.582676	1.1323	1.39149	-0.603509	1.0896	1.24523	-0.694339	1.17341	1.33878	-0.589762	1.03554	1.23835	-0.776359	0.973502	1.22138	-0.705465	0.632295	0.0962545	-0.671257	0.951122	1.54146	-0.681549	0.899602	1.1113	-0.546409	0.854692	0.422916	-0.623561	0.725212	0.398411	-0.651512	0.71831	0.28526	-0.620083	0.943095	0.863185	-0.66332	0.991338	0.741176	-0.644592	0.917432	0.654972	-0.64483	0.682318	0.0791026	-0.604279	0.993508	1.44597	-0.733653	0.953	1.35271	-0.728322	1.00129	1.31272	-0.770466	0.998934	1.56597	-0.350404	1.05246	1.09215	-0.373774	1.12002	0.0916219	-0.406722	0.972769	1.12238	-0.215063	0.802723	1.22595	-0.203538	0.931664	1.0793	-0.18316	0.783835	1.30683	-0.213961	1.17074	0.131325	-0.346814	0.76781	1.28718	-0.298126	1.18999	0.158005	-0.425514	1.28417	0.0938888	-0.321882	0.893293	1.10931	-0.456943	1.17807	0.435954	-0.360998	1.14364	0.375197	-0.318307	1.18714	0.254154	-0.362924	1.01552	0.826081	-0.31338	1.10789	0.777226	-0.329186	1.07126	0.665462	-0.330547	1.33616	0.142064	-0.391095	0.904608	1.45072	-0.261235	0.824065	1.41545	-0.301056	0.8025	1.3698	-0.250773
